<?xml version="1.0" encoding="UTF-8" standalone="no"?>
<!-- Created with Inkscape (http://www.inkscape.org/) -->

<svg
   xmlns:dc="http://purl.org/dc/elements/1.1/"
   xmlns:cc="http://creativecommons.org/ns#"
   xmlns:rdf="http://www.w3.org/1999/02/22-rdf-syntax-ns#"
   xmlns:svg="http://www.w3.org/2000/svg"
   xmlns="http://www.w3.org/2000/svg"
   xmlns:sodipodi="http://sodipodi.sourceforge.net/DTD/sodipodi-0.dtd"
   xmlns:inkscape="http://www.inkscape.org/namespaces/inkscape"
   width="300"
   height="300"
   id="svg2"
   sodipodi:version="0.32"
   inkscape:version="0.91 r13725"
   sodipodi:docname="copy_neverwinter.svg"
   inkscape:output_extension="org.inkscape.output.svg.inkscape"
   version="1.1">
  <defs
     id="defs4" />
  <sodipodi:namedview
     id="base"
     pagecolor="#ffffff"
     bordercolor="#666666"
     borderopacity="1.0"
     gridtolerance="10000"
     guidetolerance="10"
     objecttolerance="10"
     inkscape:pageopacity="0.0"
     inkscape:pageshadow="2"
     inkscape:zoom="1.979899"
     inkscape:cx="122.01246"
     inkscape:cy="66.463"
     inkscape:document-units="px"
     inkscape:current-layer="layer1"
     showgrid="false"
     showguides="true"
     inkscape:guide-bbox="true"
     inkscape:window-width="1280"
     inkscape:window-height="948"
     inkscape:window-x="0"
     inkscape:window-y="24" />
  <metadata
     id="metadata7">
    <rdf:RDF>
      <cc:Work
         rdf:about="">
        <dc:format>image/svg+xml</dc:format>
        <dc:type
           rdf:resource="http://purl.org/dc/dcmitype/StillImage" />
        <dc:title></dc:title>
      </cc:Work>
    </rdf:RDF>
  </metadata>
  <g
     inkscape:label="Layer 1"
     inkscape:groupmode="layer"
     id="layer1"
     transform="translate(0,-752.36218)">
    <g
       id="g4137"
       transform="matrix(1.7333336,0,0,1.7272721,-23.33334,-742.62644)">
      <path
         inkscape:connector-curvature="0"
         id="path3301"
         d="m 53.723417,897.36216 -1.048952,0.089 -1.29445,0.2226 -1.272133,0.53422 -1.093587,0.42292 -0.848089,0.62326 -1.205179,1.11297 -0.915042,1.00165 -0.669544,1.06845 -0.178545,1.17974 0,2.0701 0.401727,2.42626 0.714179,2.24817 1.048951,4.05117 0.937362,4.40733 0.446362,3.00498 0.133908,1.31329 -0.357089,0.53423 -0.223181,0.31162 -1.115906,0.0446 -0.82577,-0.44519 -1.562269,-0.80133 -1.53995,-0.86811 -1.807767,-0.75681 -1.718496,-0.66777 -1.897039,-0.69004 -1.472996,-0.26711 -1.31677,-0.2226 -0.758815,-0.0446 -0.267817,0.17807 0.133908,0.31163 0.669543,0.53422 1.18286,1.44685 0.848089,1.44685 0.758816,1.15747 0.915043,1.66944 0.490999,1.22425 0,2.07011 -13.011463,5.65383 c -0.580828,0.15014 -1.004307,0.63982 -1.004315,1.202 8e-6,0.33066 0.140223,0.62389 0.379409,0.84585 l 0.02229,0.0222 c 0.168667,0.14924 0.388327,0.25401 0.624907,0.31164 l 26.335378,13.55587 0,2.53755 0.71418,5.36442 0.46868,2.78244 0.669544,2.64881 0.981997,2.51533 0.825771,1.71391 0.490998,0.69007 0.35709,0.31164 0.624906,0 0.557954,-0.22259 0.401725,-0.60103 0.312454,-1.46911 0.624908,-1.66941 0.669544,-1.4914 0.781134,-1.11296 0.803451,-1.00163 1.361406,-1.06844 1.249814,-0.82363 1.093588,-0.7568 0.848088,-0.40067 1.227497,-0.089 1.026633,-0.0442 1.004316,0 c -0.02607,0.21996 -0.04464,0.44055 -0.04464,0.66778 7e-6,3.00367 2.335282,5.45353 5.222439,5.45353 2.887164,0 5.222446,-2.44986 5.22244,-5.45353 0.391778,-0.24831 0.737062,-0.45565 1.115905,-0.68999 3.953,0.73964 8.511609,1.27749 13.480141,1.53584 -0.0038,0.0235 -0.01918,0.0434 -0.02229,0.0669 0,3.74838 2.515561,6.78909 5.601853,6.78909 3.06762,0 5.54964,-3.00516 5.57953,-6.72227 5.04551,-0.15798 9.7428,-0.6165 13.88187,-1.26881 0.23281,0.10207 0.40961,0.18583 0.64722,0.28941 0,3.00359 2.33528,5.45346 5.22243,5.45346 2.88717,0 5.22244,-2.44979 5.22245,-5.45346 0,-0.22723 -0.0185,-0.4479 -0.0447,-0.66778 l 1.00432,0 1.02663,0.0442 1.2275,0.089 0.84809,0.40066 1.09358,0.75682 1.24982,0.82355 1.36141,1.06844 0.80345,1.0017 0.78113,1.11296 0.66954,1.49133 0.62491,1.66948 0.31246,1.4691 0.40172,0.60097 0.55796,0.22259 0.62491,0 0.35708,-0.31164 0.491,-0.68999 0.82577,-1.71399 0.982,-2.51525 0.66954,-2.64888 0.46868,-2.7823 0.71418,-5.36451 0,-2.53754 26.33538,-13.55584 c 0.23659,-0.0575 0.45624,-0.1624 0.6249,-0.31163 l 0.0223,-0.0222 c 0.23919,-0.22195 0.3794,-0.51518 0.37941,-0.84584 0,-0.56219 -0.42349,-1.05187 -1.00432,-1.202 l -13.01146,-5.65383 0,-2.0701 0.491,-1.22427 0.91504,-1.66943 0.75881,-1.15747 0.84809,-1.44685 1.18287,-1.44685 0.66954,-0.53422 0.13391,-0.31164 -0.26782,-0.17806 -0.75881,0.0446 -1.31677,0.22259 -1.473,0.2671 -1.89704,0.69004 -1.71849,0.66777 -1.80777,0.75681 -1.53995,0.86812 -1.56227,0.80132 -0.82577,0.4452 -1.1159,-0.0446 -0.22319,-0.31163 -0.35708,-0.53422 0.1339,-1.31329 0.44637,-3.005 0.93735,-4.40731 1.04896,-4.05117 0.71417,-2.24818 0.40173,-2.42625 0,-2.07011 -0.17854,-1.17973 -0.66955,-1.06845 -0.91504,-1.00167 -1.20518,-1.11295 -0.84809,-0.62325 -1.09359,-0.42293 -1.27213,-0.53422 -1.29445,-0.2226 -1.04895,-0.089 0.17855,2.11463 0.0447,1.62492 -0.0892,1.75847 -0.53563,2.07011 -0.66954,1.55815 -0.95968,1.80299 -1.24982,1.80299 -1.58458,1.89203 -1.58459,1.51364 -1.56226,1.3578 -3.88336,-2.04784 c -6.30882,-4.83454 -19.3139,-8.16913 -34.34758,-8.16913 -14.964373,0 -27.939348,3.30403 -34.280636,8.10234 l -4.01726,2.11463 -1.562269,-1.3578 -1.584586,-1.51364 -1.584587,-1.89203 -1.249814,-1.80299 -0.959643,-1.80303 -0.669544,-1.55815 -0.535634,-2.0701 -0.08928,-1.75848 0.04464,-1.62491 0.178545,-2.11462 z m 45.662873,20.41167 c 1.16807,-0.006 2.33596,0.006 3.50394,0.0222 -0.89774,8.70112 -2.12992,14.09006 -3.50394,14.09006 -1.371533,0 -2.606605,-5.37196 -3.50395,-14.04554 1.167611,-0.0389 2.33587,-0.0611 3.50395,-0.0668 z m 8.70406,0.24486 c 6.84332,0.41064 13.11253,1.34155 18.70258,2.6711 -1.77414,7.11603 -11.44321,12.71022 -23.56793,13.60037 1.88539,-3.32937 3.54999,-8.97631 4.86535,-16.27147 z m -17.564357,0.089 c 1.302971,7.19682 2.962102,12.7678 4.820716,16.0934 -11.566994,-1.13335 -20.669222,-6.57616 -22.429711,-13.44455 5.278573,-1.27131 11.179405,-2.1909 17.608995,-2.64885 z m 41.266197,3.93987 c 12.07509,3.66683 20.23139,9.30316 22.98766,15.33658 l -0.13391,0 -0.17854,0.26711 -0.491,0.35615 -0.66954,0.20034 -4.84303,0.0446 -2.00863,0.28937 -0.93737,0.33388 -0.55794,0.48971 -0.62491,1.00166 -0.7365,1.02395 -0.62491,0.53422 -1.13822,0.69 -1.33909,0.13356 -2.38804,0.13355 -2.27644,0.22259 -2.00863,0.40067 -1.53995,0.31163 -1.40605,0.22259 -1.16054,0.2671 -1.80777,0.80133 -0.0447,0.0221 c -5.84552,3.23388 -16.15734,5.38671 -27.91996,5.38671 -12.308067,0 -23.049067,-2.36751 -28.723417,-5.85412 l -0.825771,-0.35614 -1.160541,-0.26712 -1.406042,-0.22259 -1.53995,-0.31162 -2.008631,-0.40067 -2.276447,-0.22259 -2.388039,-0.13356 -1.339087,-0.13356 -1.138224,-0.69007 -0.624908,-0.53422 -0.71418,-1.02391 -0.647225,-1.00166 -0.557953,-0.48971 -0.937361,-0.33388 -2.00863,-0.28938 -4.820713,-0.0446 -0.691863,-0.20034 -0.490997,-0.35615 -0.200864,-0.26711 c 2.778267,-6.12353 10.780058,-11.68992 22.630572,-15.31431 2.225127,12.72856 15.652398,22.50407 31.870271,22.50407 16.22702,0 29.63747,-9.78726 31.84796,-22.52634 z"
         style="opacity:1;fill:#000000;fill-opacity:1;fill-rule:nonzero;stroke:none;stroke-width:2;stroke-linecap:butt;stroke-linejoin:miter;stroke-miterlimit:4;stroke-dasharray:none;stroke-dashoffset:0;stroke-opacity:1" />
      <path
         inkscape:connector-curvature="0"
         sodipodi:nodetypes="csssc"
         id="path3328"
         d="m 77.208476,986.13613 c 0,8.24155 -1.34402,9.89345 -3.111174,9.89345 -1.767131,0 -3.020988,-1.6519 -3.020988,-9.89345 0,-8.24147 1.253857,-19.96689 3.020988,-19.96689 1.767154,0 3.111174,11.72542 3.111174,19.96689 z"
         style="fill:#000000;fill-opacity:1;fill-rule:nonzero;stroke:none;stroke-width:2;stroke-linecap:butt;stroke-linejoin:miter;stroke-miterlimit:4;stroke-dashoffset:0;stroke-opacity:1" />
      <path
         inkscape:connector-curvature="0"
         sodipodi:nodetypes="csssc"
         id="path3331"
         d="m 128.79076,986.49584 c 0,8.24144 -1.34402,9.89344 -3.11117,9.89344 -1.76713,0 -3.02099,-1.652 -3.02099,-9.89344 0,-8.24139 1.25386,-19.96683 3.02099,-19.96683 1.76715,0 3.11117,11.72544 3.11117,19.96683 z"
         style="fill:#000000;fill-opacity:1;fill-rule:nonzero;stroke:none;stroke-width:2;stroke-linecap:butt;stroke-linejoin:miter;stroke-miterlimit:4;stroke-dashoffset:0;stroke-opacity:1" />
      <path
         inkscape:connector-curvature="0"
         sodipodi:nodetypes="csssc"
         id="path3333"
         d="m 103.17997,994.36948 c 0,10.82312 -1.34402,12.99272 -3.11117,12.99272 -1.767134,0 -3.020984,-2.1696 -3.020984,-12.99272 0,-10.82311 1.25385,-26.22149 3.020984,-26.22149 1.76715,0 3.11117,15.39838 3.11117,26.22149 z"
         style="fill:#000000;fill-opacity:1;fill-rule:nonzero;stroke:none;stroke-width:2;stroke-linecap:butt;stroke-linejoin:miter;stroke-miterlimit:4;stroke-dashoffset:0;stroke-opacity:1" />
    </g>
  </g>
</svg>
